<svg xmlns="http://www.w3.org/2000/svg" width="800" height="420" viewBox="0 0 800 420">
  <defs>
    <linearGradient id="bg" x1="0" y1="0" x2="1" y2="1">
      <stop offset="0%" stop-color="#0d1931"/>
      <stop offset="100%" stop-color="#0a1326"/>
    </linearGradient>
    <linearGradient id="accent" x1="0" y1="0" x2="0" y2="1">
      <stop offset="0%" stop-color="#22d3ee"/>
      <stop offset="100%" stop-color="#60a5fa"/>
    </linearGradient>
  </defs>
  <rect width="800" height="420" rx="18" fill="url(#bg)"/>
  <rect x="36" y="36" width="728" height="348" rx="16" fill="none" stroke="#4a7dbe" stroke-opacity="0.35"/>
  <rect x="92" y="108" width="356" height="238" rx="12" fill="#121f3a" stroke="#38619a" stroke-opacity="0.6"/>
  <line x1="130" y1="314" x2="130" y2="138" stroke="#335c95"/>
  <line x1="130" y1="314" x2="410" y2="314" stroke="#335c95"/>
  <rect x="166" y="246" width="34" height="68" rx="5" fill="url(#accent)"/>
  <rect x="224" y="220" width="34" height="94" rx="5" fill="url(#accent)"/>
  <rect x="282" y="186" width="34" height="128" rx="5" fill="url(#accent)"/>
  <rect x="340" y="160" width="34" height="154" rx="5" fill="url(#accent)"/>
  <path d="M510 156 H700 V346 H510 Z" fill="#111d36" stroke="#38619a" stroke-opacity="0.6"/>
  <circle cx="606" cy="238" r="68" fill="#0f1a32" stroke="#4675b8" stroke-opacity="0.55"/>
  <path d="M606 238 L666 214 A68 68 0 0 0 606 170 Z" fill="#22d3ee" fill-opacity="0.78"/>
  <path d="M606 238 L575 298 A68 68 0 0 0 666 214 Z" fill="#60a5fa" fill-opacity="0.72"/>
  <path d="M606 238 L606 170 A68 68 0 0 0 575 298 Z" fill="#6ee7f2" fill-opacity="0.6"/>
  <text x="78" y="74" fill="#d8ecff" font-family="Arial, sans-serif" font-size="26" font-weight="700">Business Context</text>
  <text x="78" y="97" fill="#9ab8de" font-family="Arial, sans-serif" font-size="13" letter-spacing="1.4">STRATEGY / PRIORITIZATION / OUTCOMES</text>
</svg>
