<svg xmlns="http://www.w3.org/2000/svg" width="800" height="420" viewBox="0 0 800 420">
  <defs>
    <linearGradient id="bg" x1="0" y1="0" x2="1" y2="1">
      <stop offset="0%" stop-color="#0f1a34"/>
      <stop offset="100%" stop-color="#091225"/>
    </linearGradient>
    <linearGradient id="accent" x1="0" y1="0" x2="1" y2="1">
      <stop offset="0%" stop-color="#60a5fa"/>
      <stop offset="100%" stop-color="#22d3ee"/>
    </linearGradient>
  </defs>
  <rect width="800" height="420" rx="18" fill="url(#bg)"/>
  <rect x="36" y="36" width="728" height="348" rx="16" fill="none" stroke="#4b75b7" stroke-opacity="0.35"/>
  <g transform="translate(250 78)">
    <path d="M150 10 L268 78 L268 214 L150 282 L32 214 L32 78 Z" fill="#12213f" stroke="#5678b6" stroke-opacity="0.6"/>
    <path d="M150 38 L244 92 L244 200 L150 254 L56 200 L56 92 Z" fill="none" stroke="#4b74b5" stroke-opacity="0.6"/>
    <path d="M150 66 L220 106 L220 186 L150 226 L80 186 L80 106 Z" fill="none" stroke="#4b74b5" stroke-opacity="0.6"/>
    <path d="M150 10 L150 282 M32 78 L268 214 M268 78 L32 214" stroke="#3e639a" stroke-opacity="0.6"/>
    <circle cx="150" cy="10" r="8" fill="#22d3ee"/>
    <circle cx="268" cy="78" r="8" fill="#60a5fa"/>
    <circle cx="268" cy="214" r="8" fill="#22d3ee"/>
    <circle cx="150" cy="282" r="8" fill="#60a5fa"/>
    <circle cx="32" cy="214" r="8" fill="#22d3ee"/>
    <circle cx="32" cy="78" r="8" fill="#60a5fa"/>
  </g>
  <rect x="528" y="130" width="188" height="160" rx="12" fill="#111d38" stroke="#466daa" stroke-opacity="0.6"/>
  <rect x="548" y="156" width="146" height="16" rx="8" fill="url(#accent)" fill-opacity="0.8"/>
  <rect x="548" y="190" width="112" height="12" rx="6" fill="#7dc9ff" fill-opacity="0.65"/>
  <rect x="548" y="216" width="134" height="12" rx="6" fill="#7dc9ff" fill-opacity="0.5"/>
  <rect x="548" y="242" width="92" height="12" rx="6" fill="#7dc9ff" fill-opacity="0.42"/>
  <text x="78" y="74" fill="#d8ecff" font-family="Arial, sans-serif" font-size="26" font-weight="700">Adaptive Context</text>
  <text x="78" y="97" fill="#9ab8de" font-family="Arial, sans-serif" font-size="13" letter-spacing="1.4">PERSONALITY / COGNITIVE / BEHAVIORAL SIGNALS</text>
</svg>
