<svg xmlns="http://www.w3.org/2000/svg" width="800" height="420" viewBox="0 0 800 420">
  <defs>
    <linearGradient id="bg" x1="0" y1="0" x2="1" y2="1">
      <stop offset="0%" stop-color="#0f1a35"/>
      <stop offset="100%" stop-color="#0a1223"/>
    </linearGradient>
    <linearGradient id="accent" x1="0" y1="0" x2="1" y2="1">
      <stop offset="0%" stop-color="#34d399"/>
      <stop offset="100%" stop-color="#22d3ee"/>
    </linearGradient>
  </defs>
  <rect width="800" height="420" rx="18" fill="url(#bg)"/>
  <rect x="36" y="36" width="728" height="348" rx="16" fill="none" stroke="#4b78b7" stroke-opacity="0.35"/>
  <circle cx="402" cy="134" r="44" fill="#132444" stroke="#4f7eba" stroke-opacity="0.6"/>
  <circle cx="402" cy="130" r="18" fill="#34d399" fill-opacity="0.8"/>
  <rect x="372" y="154" width="60" height="50" rx="14" fill="#34d399" fill-opacity="0.42"/>
  <circle cx="256" cy="250" r="36" fill="#132444" stroke="#4f7eba" stroke-opacity="0.6"/>
  <circle cx="548" cy="250" r="36" fill="#132444" stroke="#4f7eba" stroke-opacity="0.6"/>
  <circle cx="256" cy="246" r="14" fill="#22d3ee" fill-opacity="0.75"/>
  <circle cx="548" cy="246" r="14" fill="#22d3ee" fill-opacity="0.75"/>
  <rect x="232" y="264" width="48" height="40" rx="10" fill="#22d3ee" fill-opacity="0.34"/>
  <rect x="524" y="264" width="48" height="40" rx="10" fill="#22d3ee" fill-opacity="0.34"/>
  <path d="M402 178 L256 214" stroke="url(#accent)" stroke-width="6" stroke-linecap="round"/>
  <path d="M402 178 L548 214" stroke="url(#accent)" stroke-width="6" stroke-linecap="round"/>
  <path d="M256 250 L548 250" stroke="url(#accent)" stroke-width="4" stroke-dasharray="10 10" stroke-linecap="round"/>
  <text x="78" y="74" fill="#d8ecff" font-family="Arial, sans-serif" font-size="26" font-weight="700">Leadership Context</text>
  <text x="78" y="97" fill="#9ab8de" font-family="Arial, sans-serif" font-size="13" letter-spacing="1.4">TEAM ALIGNMENT / OWNERSHIP / INFLUENCE</text>
</svg>
